<svg id="Layer_1" data-name="Layer 1" xmlns="http://www.w3.org/2000/svg" viewBox="0 0 326.97 326.97"><defs><style>.cls-1{fill:#ffffff;}</style></defs><title>close_icon</title><path class="cls-1" d="M219.3,174.88L329.1,284.59a30.78,30.78,0,0,1,0,44.27c-5.78,5.77-14.45,9.62-22.15,9.62s-16.37-3.85-22.15-9.62L175,219.15,65.21,328.86c-5.78,5.77-14.45,9.62-22.15,9.62s-16.37-3.85-22.15-9.62a30.78,30.78,0,0,1,0-44.27L130.7,174.88,20.9,65.17a30.78,30.78,0,0,1,0-44.27,30.84,30.84,0,0,1,44.3,0L175,130.61,284.79,20.9a30.84,30.84,0,0,1,44.3,0,30.78,30.78,0,0,1,0,44.27Z" transform="translate(-11.51 -11.51)"/></svg>